<?xml version="1.0" standalone="no"?>
<!DOCTYPE svg PUBLIC "-//W3C//DTD SVG 20010904//EN"
 "http://www.w3.org/TR/2001/REC-SVG-20010904/DTD/svg10.dtd">
<svg version="1.0" xmlns="http://www.w3.org/2000/svg"
 width="192.000000pt" height="192.000000pt" viewBox="0 0 192.000000 192.000000"
 preserveAspectRatio="xMidYMid meet">
<metadata>
Created by potrace 1.14, written by Peter Selinger 2001-2017
</metadata>
<g transform="translate(0.000000,192.000000) scale(0.100000,-0.100000)"
fill="#000000" stroke="none">
<path d="M524 1767 c-10 -12 -25 -35 -33 -50 -13 -25 -19 -27 -79 -27 -58 0
-67 3 -91 29 -14 16 -38 36 -53 46 -25 16 -27 15 -37 -3 -7 -13 -7 -46 -1 -98
7 -62 6 -85 -6 -108 -16 -33 -19 -92 -4 -101 6 -3 10 -13 10 -22 0 -8 17 -35
39 -59 39 -45 51 -78 51 -145 0 -26 16 -68 50 -135 l50 -97 0 -135 0 -134 -30
-28 c-16 -15 -30 -31 -30 -35 0 -3 14 -24 32 -46 29 -36 35 -39 80 -39 26 0
48 4 48 8 0 5 8 19 19 30 21 25 66 31 58 8 -3 -8 6 -26 21 -41 23 -23 32 -26
72 -22 55 7 129 22 153 32 9 4 31 2 47 -5 24 -10 39 -10 75 1 25 7 45 17 45
21 0 4 11 8 24 8 14 0 28 5 31 10 11 17 237 12 274 -6 38 -19 57 -49 39 -61
-35 -22 -63 -33 -84 -33 -12 0 -26 -4 -29 -10 -3 -5 -17 -10 -31 -10 -47 0
-69 -41 -37 -66 34 -26 94 -16 200 33 95 44 134 100 100 144 -32 41 -154 107
-227 122 -59 13 -220 15 -244 3 -17 -8 -18 -6 -12 25 23 112 26 332 5 345 -5
3 -9 14 -9 26 0 19 -36 80 -52 86 -4 2 -8 9 -8 16 0 31 -136 126 -180 126 -10
0 -49 31 -87 68 -70 69 -93 101 -93 126 0 8 -5 16 -11 18 -8 3 -8 14 0 43 21
78 8 165 -26 165 -5 0 -18 -10 -29 -23z"/>
</g>
</svg>
